<?xml version="1.0" encoding="UTF-8"?>
<svg id="Layer_1" data-name="Layer 1" xmlns="http://www.w3.org/2000/svg" xmlns:xlink="http://www.w3.org/1999/xlink" viewBox="0 0 921.81 850.05">
  <defs>
    <style>
      .cls-1 {
        fill: url(#linear-gradient-2);
      }

      .cls-2 {
        fill: url(#linear-gradient-3);
      }

      .cls-3 {
        fill: url(#linear-gradient);
      }
    </style>
    <linearGradient id="linear-gradient" x1="470.87" y1="380.75" x2="921.81" y2="380.75" gradientUnits="userSpaceOnUse">
      <stop offset="0" stop-color="#dedede"/>
      <stop offset="1" stop-color="#fff"/>
    </linearGradient>
    <linearGradient id="linear-gradient-2" x1="95.65" y1="378.72" x2="640.06" y2="378.72" gradientTransform="translate(-64.23 -96.29) rotate(3.23)" gradientUnits="userSpaceOnUse">
      <stop offset="0" stop-color="#ffe855"/>
      <stop offset="1" stop-color="#ffc32a"/>
    </linearGradient>
    <linearGradient id="linear-gradient-3" x1="164.8" y1="631.92" x2="856.72" y2="631.92" xlink:href="#linear-gradient"/>
  </defs>
  <path class="cls-3" d="M921.81,417.89c0,58-47.02,105.01-105.01,105.01-21.47,0-41.44-6.44-58.07-17.5-16.63,11.06-36.6,17.5-58.06,17.5-23.37,0-44.95-7.63-62.39-20.54-17.44,12.9-39.02,20.54-62.39,20.54-58,0-105.01-47.02-105.01-105.01,0-43.78,26.79-81.3,64.87-97.06,10.4-47.04,52.36-82.23,102.53-82.23,22.01,0,42.43,6.77,59.3,18.33,16.88-11.57,37.3-18.33,59.3-18.33,50.59,0,92.82,35.77,102.79,83.4,36.63,16.4,62.15,53.17,62.15,95.89Z"/>
  <path class="cls-1" d="M553.5,317.85c-9.35,165.92-151.44,292.84-317.36,283.49-99.95-5.63-185.75-59.43-236.14-137.59,37.21,33.75,85.8,55.46,139.87,58.5,125.38,7.07,232.73-88.83,239.8-214.2,7.07-125.38-88.83-232.73-214.21-239.8-54.08-3.05-104.79,13.06-145.56,42.41C78.76,38.66,170.06-5.15,270.01,.49c165.92,9.35,292.84,151.44,283.49,317.37Z"/>
  <path class="cls-2" d="M856.72,688.91c0,88.99-72.14,161.13-161.13,161.13-32.94,0-63.58-9.89-89.1-26.86-25.52,16.97-56.16,26.86-89.09,26.86-35.85,0-68.97-11.71-95.74-31.51-26.76,19.8-59.88,31.51-95.73,31.51-88.99,0-161.13-72.14-161.13-161.13,0-67.17,41.11-124.75,99.53-148.94,15.96-72.19,80.34-126.18,157.33-126.18,33.77,0,65.1,10.38,91,28.13,25.89-17.75,57.23-28.13,90.99-28.13,77.62,0,142.43,54.89,157.72,127.97,56.2,25.16,95.36,81.58,95.36,147.14Z"/>
</svg>