<?xml version="1.0" encoding="UTF-8"?>
<svg id="Layer_1" data-name="Layer 1" xmlns="http://www.w3.org/2000/svg" xmlns:xlink="http://www.w3.org/1999/xlink" viewBox="0 0 1127.61 1396.04">
  <defs>
    <style>
      .cls-1 {
        fill: url(#linear-gradient-2);
      }

      .cls-2 {
        stroke-dasharray: 0 0 .89 .89;
      }

      .cls-2, .cls-3, .cls-4, .cls-5, .cls-6, .cls-7, .cls-8, .cls-9, .cls-10 {
        fill: none;
        stroke: #00b1ff;
        stroke-miterlimit: 10;
        stroke-width: 24px;
      }

      .cls-3 {
        stroke-dasharray: 0 0 1.04 1.04;
      }

      .cls-4 {
        stroke-dasharray: 0 0 0 0 88.33 88.33 1.04 1.04;
      }

      .cls-5 {
        stroke-dasharray: 0 0 1 1;
      }

      .cls-6 {
        stroke-dasharray: 0 0 0 0 73.44 73.44 .86 .86;
      }

      .cls-7 {
        stroke-dasharray: 0 0 0 0 75.42 75.42 .89 .89;
      }

      .cls-8 {
        stroke-dasharray: 0 0 .86 .86;
      }

      .cls-11 {
        fill: url(#linear-gradient-3);
      }

      .cls-12 {
        fill: url(#linear-gradient);
      }

      .cls-10 {
        stroke-dasharray: 0 0 0 0 84.86 84.86 1 1;
      }
    </style>
    <linearGradient id="linear-gradient" x1="393.58" y1="322.46" x2="938" y2="322.46" gradientTransform="translate(118.52 -210.99) rotate(18.96)" gradientUnits="userSpaceOnUse">
      <stop offset="0" stop-color="#ffe855"/>
      <stop offset="1" stop-color="#ffc32a"/>
    </linearGradient>
    <linearGradient id="linear-gradient-2" x1="0" y1="723.21" x2="622.87" y2="723.21" gradientUnits="userSpaceOnUse">
      <stop offset="0" stop-color="#dedede"/>
      <stop offset="1" stop-color="#fff"/>
    </linearGradient>
    <linearGradient id="linear-gradient-3" x1="285.9" y1="801.39" x2="1127.61" y2="801.39" xlink:href="#linear-gradient-2"/>
  </defs>
  <g>
    <line class="cls-9" x1="170.11" y1="1124.1" x2="193.48" y2="1088.6"/>
    <line class="cls-5" x1="240.13" y1="1017.71" x2="240.95" y2="1016.46"/>
    <line class="cls-10" x1="241.23" y1="1016.05" x2="524.17" y2="586.15"/>
    <line class="cls-9" x1="524.44" y1="585.73" x2="547.81" y2="550.23"/>
  </g>
  <g>
    <line class="cls-9" x1="214.19" y1="1288.85" x2="237.56" y2="1253.35"/>
    <line class="cls-2" x1="279.03" y1="1190.35" x2="279.76" y2="1189.23"/>
    <line class="cls-7" x1="280" y1="1188.86" x2="615.38" y2="679.29"/>
    <line class="cls-9" x1="615.63" y1="678.92" x2="638.99" y2="643.42"/>
  </g>
  <g>
    <line class="cls-9" x1="321.7" y1="1389.44" x2="345.06" y2="1353.94"/>
    <line class="cls-2" x1="386.53" y1="1290.94" x2="387.26" y2="1289.83"/>
    <line class="cls-7" x1="387.5" y1="1289.46" x2="722.88" y2="779.89"/>
    <line class="cls-9" x1="723.13" y1="779.52" x2="746.49" y2="744.02"/>
  </g>
  <g>
    <line class="cls-9" x1="562.98" y1="1293.86" x2="585.13" y2="1257.6"/>
    <line class="cls-3" x1="631.18" y1="1182.22" x2="632" y2="1180.89"/>
    <line class="cls-4" x1="632.27" y1="1180.44" x2="911.56" y2="723.3"/>
    <line class="cls-9" x1="911.83" y1="722.85" x2="933.99" y2="686.59"/>
  </g>
  <g>
    <line class="cls-9" x1="748.48" y1="1191.69" x2="770.64" y2="1155.42"/>
    <line class="cls-8" x1="808.93" y1="1092.75" x2="809.6" y2="1091.65"/>
    <line class="cls-6" x1="809.83" y1="1091.28" x2="964.55" y2="838.02"/>
    <line class="cls-9" x1="964.78" y1="837.65" x2="986.93" y2="801.39"/>
  </g>
  <path class="cls-12" d="M900.83,398.77c-54,157.17-225.18,240.8-382.35,186.79-94.68-32.53-162.67-107.58-189.98-196.48,26.66,42.58,67.54,76.65,118.76,94.25,118.76,40.81,248.1-22.38,288.91-141.14,40.81-118.76-22.38-248.1-141.14-288.91-51.22-17.6-104.41-15.85-151.61,1.35C519.6,1.29,619.35-16.12,714.03,16.41c157.17,54,240.8,225.18,186.79,382.36Z"/>
  <path class="cls-1" d="M622.87,774.52c0,80.11-64.94,145.05-145.05,145.05-29.66,0-57.24-8.9-80.21-24.18-22.97,15.28-50.55,24.18-80.2,24.18-32.27,0-62.09-10.54-86.18-28.37-24.09,17.82-53.9,28.37-86.18,28.37C64.94,919.57,0,854.63,0,774.52c0-60.47,37-112.3,89.6-134.07,14.37-64.98,72.32-113.58,141.63-113.58,30.4,0,58.61,9.35,81.91,25.32,23.31-15.98,51.52-25.32,81.91-25.32,69.88,0,128.22,49.41,141.98,115.2,50.59,22.65,85.84,73.44,85.84,132.46Z"/>
  <path class="cls-11" d="M1127.61,870.71c0,108.26-87.76,196.02-196.02,196.02-40.07,0-77.34-12.03-108.39-32.67-31.04,20.64-68.31,32.67-108.38,32.67-43.61,0-83.9-14.25-116.46-38.33-32.55,24.09-72.84,38.33-116.45,38.33-108.26,0-196.02-87.76-196.02-196.02,0-81.71,50-151.76,121.08-181.18,19.42-87.81,97.74-153.49,191.39-153.49,41.07,0,79.2,12.63,110.69,34.22,31.5-21.59,69.62-34.22,110.69-34.22,94.43,0,173.26,66.77,191.86,155.68,68.37,30.61,116,99.24,116,178.99Z"/>
</svg>