<?xml version="1.0" encoding="UTF-8"?>
<svg id="Layer_1" data-name="Layer 1" xmlns="http://www.w3.org/2000/svg" xmlns:xlink="http://www.w3.org/1999/xlink" viewBox="0 0 1256.31 1035.32">
  <defs>
    <style>
      .cls-1 {
        fill: url(#linear-gradient-2);
      }

      .cls-2 {
        fill: url(#linear-gradient-3);
      }

      .cls-3 {
        fill: url(#linear-gradient);
      }
    </style>
    <linearGradient id="linear-gradient" x1="425.36" y1="415.48" x2="1256.31" y2="415.48" gradientUnits="userSpaceOnUse">
      <stop offset="0" stop-color="#ffe855"/>
      <stop offset="1" stop-color="#ffb22a"/>
    </linearGradient>
    <linearGradient id="linear-gradient-2" x1="0" y1="612.01" x2="622.87" y2="612.01" gradientUnits="userSpaceOnUse">
      <stop offset="0" stop-color="#dedede"/>
      <stop offset="1" stop-color="#fff"/>
    </linearGradient>
    <linearGradient id="linear-gradient-3" x1="269.78" y1="769.97" x2="1111.49" y2="769.97" xlink:href="#linear-gradient-2"/>
  </defs>
  <circle class="cls-3" cx="840.83" cy="415.48" r="415.48"/>
  <path class="cls-1" d="M622.87,663.31c0,80.11-64.94,145.05-145.05,145.05-29.66,0-57.24-8.9-80.21-24.18-22.97,15.28-50.55,24.18-80.2,24.18-32.27,0-62.09-10.54-86.18-28.37-24.09,17.82-53.9,28.37-86.18,28.37C64.94,808.36,0,743.42,0,663.31c0-60.47,37-112.3,89.6-134.07,14.37-64.98,72.32-113.58,141.63-113.58,30.4,0,58.61,9.35,81.91,25.32,23.31-15.98,51.52-25.32,81.91-25.32,69.88,0,128.22,49.41,141.98,115.2,50.59,22.65,85.84,73.44,85.84,132.46Z"/>
  <path class="cls-2" d="M1111.49,839.3c0,108.26-87.76,196.02-196.02,196.02-40.07,0-77.34-12.03-108.39-32.67-31.04,20.64-68.31,32.67-108.38,32.67-43.61,0-83.9-14.25-116.46-38.33-32.55,24.09-72.84,38.33-116.45,38.33-108.26,0-196.02-87.76-196.02-196.02,0-81.71,50-151.76,121.08-181.18,19.42-87.81,97.74-153.49,191.39-153.49,41.07,0,79.2,12.63,110.69,34.22,31.5-21.59,69.62-34.22,110.69-34.22,94.43,0,173.26,66.77,191.86,155.68,68.37,30.61,116,99.24,116,178.99Z"/>
</svg>