<?xml version="1.0" encoding="UTF-8"?>
<svg id="Layer_1" data-name="Layer 1" xmlns="http://www.w3.org/2000/svg" xmlns:xlink="http://www.w3.org/1999/xlink" viewBox="0 0 1111.49 1364.63">
  <defs>
    <style>
      .cls-1 {
        fill: url(#linear-gradient-2);
      }

      .cls-2 {
        stroke-dasharray: 0 0 .89 .89;
      }

      .cls-2, .cls-3, .cls-4, .cls-5, .cls-6, .cls-7, .cls-8 {
        fill: none;
        stroke: #00b1ff;
        stroke-miterlimit: 10;
        stroke-width: 24px;
      }

      .cls-3 {
        stroke-dasharray: 0 0 1.04 1.04;
      }

      .cls-4 {
        stroke-dasharray: 0 0 0 0 88.33 88.33 1.04 1.04;
      }

      .cls-5 {
        stroke-dasharray: 0 0 0 0 73.44 73.44 .86 .86;
      }

      .cls-6 {
        stroke-dasharray: 0 0 0 0 75.42 75.42 .89 .89;
      }

      .cls-7 {
        stroke-dasharray: 0 0 .86 .86;
      }

      .cls-9 {
        fill: url(#linear-gradient-3);
      }

      .cls-10 {
        fill: url(#linear-gradient);
      }
    </style>
    <linearGradient id="linear-gradient" x1="425.36" y1="343.07" x2="1111.49" y2="343.07" gradientUnits="userSpaceOnUse">
      <stop offset="0" stop-color="#ffe855"/>
      <stop offset="1" stop-color="#ffb22a"/>
    </linearGradient>
    <linearGradient id="linear-gradient-2" x1="0" y1="612.01" x2="622.87" y2="612.01" gradientUnits="userSpaceOnUse">
      <stop offset="0" stop-color="#dedede"/>
      <stop offset="1" stop-color="#fff"/>
    </linearGradient>
    <linearGradient id="linear-gradient-3" x1="269.78" y1="769.97" x2="1111.49" y2="769.97" xlink:href="#linear-gradient-2"/>
  </defs>
  <g>
    <line class="cls-8" x1="153.99" y1="1092.69" x2="177.35" y2="1057.19"/>
    <line class="cls-2" x1="218.82" y1="994.18" x2="219.55" y2="993.07"/>
    <line class="cls-6" x1="219.8" y1="992.7" x2="555.18" y2="483.13"/>
    <line class="cls-8" x1="555.42" y1="482.76" x2="578.79" y2="447.26"/>
  </g>
  <g>
    <line class="cls-8" x1="198.07" y1="1257.44" x2="221.44" y2="1221.93"/>
    <line class="cls-2" x1="262.9" y1="1158.93" x2="263.64" y2="1157.82"/>
    <line class="cls-6" x1="263.88" y1="1157.45" x2="599.26" y2="647.88"/>
    <line class="cls-8" x1="599.5" y1="647.51" x2="622.87" y2="612.01"/>
  </g>
  <g>
    <line class="cls-8" x1="305.57" y1="1358.03" x2="328.94" y2="1322.53"/>
    <line class="cls-2" x1="370.4" y1="1259.53" x2="371.14" y2="1258.42"/>
    <line class="cls-6" x1="371.38" y1="1258.05" x2="706.76" y2="748.48"/>
    <line class="cls-8" x1="707" y1="748.11" x2="730.37" y2="712.61"/>
  </g>
  <g>
    <line class="cls-8" x1="546.85" y1="1262.45" x2="569.01" y2="1226.18"/>
    <line class="cls-3" x1="615.06" y1="1150.81" x2="615.88" y2="1149.48"/>
    <line class="cls-4" x1="616.15" y1="1149.03" x2="895.44" y2="691.88"/>
    <line class="cls-8" x1="895.71" y1="691.44" x2="917.87" y2="655.17"/>
  </g>
  <g>
    <line class="cls-8" x1="732.36" y1="1160.28" x2="754.52" y2="1124.01"/>
    <line class="cls-7" x1="792.8" y1="1061.34" x2="793.48" y2="1060.24"/>
    <line class="cls-5" x1="793.7" y1="1059.87" x2="948.43" y2="806.61"/>
    <line class="cls-8" x1="948.66" y1="806.24" x2="970.81" y2="769.97"/>
  </g>
  <circle class="cls-10" cx="768.42" cy="343.07" r="343.07"/>
  <path class="cls-1" d="M622.87,663.31c0,80.11-64.94,145.05-145.05,145.05-29.66,0-57.24-8.9-80.21-24.18-22.97,15.28-50.55,24.18-80.2,24.18-32.27,0-62.09-10.54-86.18-28.37-24.09,17.82-53.9,28.37-86.18,28.37C64.94,808.36,0,743.42,0,663.31c0-60.47,37-112.3,89.6-134.07,14.37-64.98,72.32-113.58,141.63-113.58,30.4,0,58.61,9.35,81.91,25.32,23.31-15.98,51.52-25.32,81.91-25.32,69.88,0,128.22,49.41,141.98,115.2,50.59,22.65,85.84,73.44,85.84,132.46Z"/>
  <path class="cls-9" d="M1111.49,839.3c0,108.26-87.76,196.02-196.02,196.02-40.07,0-77.34-12.03-108.39-32.67-31.04,20.64-68.31,32.67-108.38,32.67-43.61,0-83.9-14.25-116.46-38.33-32.55,24.09-72.84,38.33-116.45,38.33-108.26,0-196.02-87.76-196.02-196.02,0-81.71,50-151.76,121.08-181.18,19.42-87.81,97.74-153.49,191.39-153.49,41.07,0,79.2,12.63,110.69,34.22,31.5-21.59,69.62-34.22,110.69-34.22,94.43,0,173.26,66.77,191.86,155.68,68.37,30.61,116,99.24,116,178.99Z"/>
</svg>