<?xml version="1.0" encoding="UTF-8"?>
<svg id="Layer_1" data-name="Layer 1" xmlns="http://www.w3.org/2000/svg" xmlns:xlink="http://www.w3.org/1999/xlink" viewBox="0 0 1170.22 1126.08">
  <defs>
    <style>
      .cls-1 {
        fill: url(#linear-gradient-2);
      }

      .cls-2 {
        stroke-dasharray: 0 0 .89 .89;
      }

      .cls-2, .cls-3, .cls-4, .cls-5, .cls-6 {
        fill: none;
        stroke: #00b1ff;
        stroke-miterlimit: 10;
        stroke-width: 24px;
      }

      .cls-3 {
        stroke-dasharray: 0 0 1.04 1.04;
      }

      .cls-4 {
        stroke-dasharray: 0 0 0 0 88.33 88.33 1.04 1.04;
      }

      .cls-5 {
        stroke-dasharray: 0 0 0 0 75.42 75.42 .89 .89;
      }

      .cls-7 {
        fill: url(#linear-gradient-3);
      }

      .cls-8 {
        fill: url(#linear-gradient);
      }
    </style>
    <linearGradient id="linear-gradient" x1="328.51" y1="265.34" x2="1170.22" y2="265.34" gradientUnits="userSpaceOnUse">
      <stop offset="0" stop-color="#dedede"/>
      <stop offset="1" stop-color="#fff"/>
    </linearGradient>
    <linearGradient id="linear-gradient-2" x1="0" y1="295.94" x2="622.87" y2="295.94" xlink:href="#linear-gradient"/>
    <linearGradient id="linear-gradient-3" x1="202.01" y1="492.3" x2="1043.73" y2="492.3" xlink:href="#linear-gradient"/>
  </defs>
  <g>
    <line class="cls-6" x1="99.04" y1="1010.64" x2="122.4" y2="975.14"/>
    <line class="cls-2" x1="163.87" y1="912.14" x2="164.6" y2="911.02"/>
    <line class="cls-5" x1="164.84" y1="910.65" x2="500.22" y2="401.08"/>
    <line class="cls-6" x1="500.47" y1="400.71" x2="523.83" y2="365.21"/>
  </g>
  <g>
    <line class="cls-6" x1="300.58" y1="935.22" x2="323.95" y2="899.72"/>
    <line class="cls-2" x1="365.41" y1="836.72" x2="366.14" y2="835.61"/>
    <line class="cls-5" x1="366.39" y1="835.24" x2="701.77" y2="325.67"/>
    <line class="cls-6" x1="702.01" y1="325.3" x2="725.38" y2="289.8"/>
  </g>
  <g>
    <line class="cls-6" x1="300.58" y1="1119.49" x2="323.95" y2="1083.99"/>
    <line class="cls-2" x1="365.41" y1="1020.99" x2="366.14" y2="1019.87"/>
    <line class="cls-5" x1="366.39" y1="1019.5" x2="701.77" y2="509.93"/>
    <line class="cls-6" x1="702.01" y1="509.56" x2="725.38" y2="474.06"/>
  </g>
  <g>
    <line class="cls-6" x1="512.98" y1="1037.68" x2="536.34" y2="1002.18"/>
    <line class="cls-2" x1="577.81" y1="939.17" x2="578.54" y2="938.06"/>
    <line class="cls-5" x1="578.78" y1="937.69" x2="914.16" y2="428.12"/>
    <line class="cls-6" x1="914.41" y1="427.75" x2="937.77" y2="392.25"/>
  </g>
  <g>
    <line class="cls-6" x1="749.36" y1="935.22" x2="771.52" y2="898.95"/>
    <line class="cls-3" x1="817.57" y1="823.58" x2="818.38" y2="822.25"/>
    <line class="cls-4" x1="818.66" y1="821.8" x2="1097.95" y2="364.65"/>
    <line class="cls-6" x1="1098.22" y1="364.21" x2="1120.37" y2="327.94"/>
  </g>
  <path class="cls-8" d="M1170.22,334.67c0,108.26-87.76,196.02-196.02,196.02-40.07,0-77.34-12.03-108.39-32.67-31.04,20.64-68.31,32.67-108.38,32.67-43.61,0-83.9-14.25-116.46-38.33-32.55,24.09-72.84,38.33-116.45,38.33-108.26,0-196.02-87.76-196.02-196.02,0-81.71,50-151.76,121.08-181.18C469,65.68,547.32,0,640.98,0c41.07,0,79.2,12.63,110.69,34.22C783.17,12.63,821.29,0,862.36,0c94.43,0,173.26,66.77,191.86,155.68,68.37,30.61,116,99.24,116,178.99Z"/>
  <path class="cls-1" d="M622.87,347.25c0,80.11-64.94,145.05-145.05,145.05-29.66,0-57.24-8.9-80.21-24.18-22.97,15.28-50.55,24.18-80.2,24.18-32.27,0-62.09-10.54-86.18-28.37-24.09,17.82-53.9,28.37-86.18,28.37C64.94,492.3,0,427.36,0,347.25c0-60.47,37-112.3,89.6-134.07,14.37-64.98,72.32-113.58,141.63-113.58,30.4,0,58.61,9.35,81.91,25.32,23.31-15.98,51.52-25.32,81.91-25.32,69.88,0,128.22,49.41,141.98,115.2,50.59,22.65,85.84,73.44,85.84,132.46Z"/>
  <path class="cls-7" d="M1043.73,561.63c0,108.26-87.76,196.02-196.02,196.02-40.07,0-77.34-12.03-108.39-32.67-31.04,20.64-68.31,32.67-108.38,32.67-43.61,0-83.9-14.25-116.46-38.33-32.55,24.09-72.84,38.33-116.45,38.33-108.26,0-196.02-87.76-196.02-196.02,0-81.71,50-151.76,121.08-181.18,19.42-87.81,97.74-153.49,191.39-153.49,41.07,0,79.2,12.63,110.69,34.22,31.5-21.59,69.62-34.22,110.69-34.22,94.43,0,173.26,66.77,191.86,155.68,68.37,30.61,116,99.24,116,178.99Z"/>
</svg>