<?xml version="1.0" encoding="UTF-8"?>
<svg id="Layer_1" data-name="Layer 1" xmlns="http://www.w3.org/2000/svg" xmlns:xlink="http://www.w3.org/1999/xlink" viewBox="0 0 1288.03 1288.07">
  <defs>
    <style>
      .cls-1 {
        fill: url(#linear-gradient);
      }
    </style>
    <linearGradient id="linear-gradient" x1="0" y1="644.03" x2="1288.03" y2="644.03" gradientUnits="userSpaceOnUse">
      <stop offset="0" stop-color="#bababa"/>
      <stop offset="1" stop-color="#fff"/>
    </linearGradient>
  </defs>
  <path class="cls-1" d="M606.82,37.21c0-20.53,16.64-37.21,37.17-37.21s37.21,16.68,37.21,37.21V199.86l73.16-73.2c14.52-14.48,38.06-14.48,52.58,0,14.48,14.52,14.48,38.06,0,52.58l-125.73,125.73v249.31l176.28-176.28V200.2c0-20.53,16.64-37.17,37.17-37.17s37.17,16.64,37.17,37.17v103.47l115.02-115.02c14.48-14.52,38.02-14.52,52.54,0,14.52,14.52,14.52,38.06,0,52.58l-114.98,115.02h103.46c20.53,0,37.17,16.64,37.17,37.17s-16.64,37.17-37.17,37.17h-177.85l-176.28,176.28h249.31l125.73-125.73c14.52-14.52,38.06-14.52,52.58,0,14.52,14.52,14.52,38.06,0,52.58l-73.16,73.15h162.65c20.53,0,37.17,16.64,37.17,37.17s-16.64,37.17-37.17,37.17h-162.65l73.16,73.15c14.52,14.52,14.52,38.06,0,52.58-14.52,14.52-38.06,14.52-52.58,0l-125.73-125.73h-249.31l176.28,176.28h177.85c20.53,0,37.17,16.64,37.17,37.17s-16.64,37.21-37.17,37.21h-103.46l114.98,114.98c14.52,14.52,14.52,38.06,0,52.58-14.52,14.52-38.06,14.52-52.54,0l-115.02-115.02v103.47c0,20.53-16.64,37.21-37.17,37.21s-37.17-16.68-37.17-37.21v-177.81l-176.28-176.28v249.31l125.73,125.73c14.48,14.52,14.48,38.06,0,52.58-14.52,14.52-38.06,14.52-52.58,0l-73.16-73.15v162.65c0,20.53-16.68,37.17-37.21,37.17s-37.17-16.64-37.17-37.17v-162.65l-73.15,73.15c-14.52,14.52-38.06,14.52-52.58,0-14.48-14.52-14.48-38.06,0-52.58l125.73-125.73v-249.31l-176.28,176.28v177.81c0,20.53-16.64,37.21-37.17,37.21s-37.17-16.68-37.17-37.21v-103.47l-115.02,115.02c-14.48,14.52-38.06,14.52-52.54,0-14.52-14.52-14.52-38.06,0-52.58l114.98-114.98h-103.46c-20.53,0-37.17-16.68-37.17-37.21s16.64-37.17,37.17-37.17h177.85l176.24-176.28h-249.31l-125.69,125.73c-14.52,14.52-38.06,14.52-52.58,0-14.52-14.52-14.52-38.06,0-52.58l73.16-73.15H37.17c-20.53,0-37.17-16.64-37.17-37.17s16.64-37.17,37.17-37.17H199.82l-73.16-73.15c-14.52-14.52-14.52-38.06,0-52.58,14.52-14.52,38.06-14.52,52.58,0l125.69,125.73h249.31l-176.24-176.28H200.16c-20.53,0-37.17-16.64-37.17-37.17s16.64-37.17,37.17-37.17h103.46l-114.98-115.02c-14.52-14.52-14.52-38.06,0-52.58,14.48-14.52,38.06-14.52,52.54,0l115.02,115.02v-103.47c0-20.53,16.64-37.17,37.17-37.17s37.17,16.64,37.17,37.17v177.8l176.28,176.28v-249.31l-125.73-125.73c-14.48-14.52-14.48-38.06,0-52.58,14.52-14.48,38.06-14.48,52.58,0l73.15,73.2V37.21Z"/>
</svg>