<?xml version="1.0" encoding="UTF-8"?>
<svg id="Layer_1" data-name="Layer 1" xmlns="http://www.w3.org/2000/svg" xmlns:xlink="http://www.w3.org/1999/xlink" viewBox="0 0 1123.47 998.15">
  <defs>
    <style>
      .cls-1 {
        fill: url(#linear-gradient-2);
      }

      .cls-2 {
        fill: #ffec00;
      }

      .cls-3 {
        fill: url(#linear-gradient-3);
      }

      .cls-4 {
        fill: url(#linear-gradient);
      }
    </style>
    <linearGradient id="linear-gradient" x1="439.71" y1="215.55" x2="1123.47" y2="215.55" gradientUnits="userSpaceOnUse">
      <stop offset="0" stop-color="#dedede"/>
      <stop offset="1" stop-color="#fff"/>
    </linearGradient>
    <linearGradient id="linear-gradient-2" x1="0" y1="196.35" x2="622.87" y2="196.35" xlink:href="#linear-gradient"/>
    <linearGradient id="linear-gradient-3" x1="202.01" y1="392.71" x2="1043.73" y2="392.71" xlink:href="#linear-gradient"/>
  </defs>
  <path class="cls-4" d="M1123.47,271.87c0,87.94-71.29,159.23-159.23,159.23-32.55,0-62.83-9.77-88.05-26.54-25.22,16.77-55.49,26.54-88.04,26.54-35.43,0-68.15-11.57-94.6-31.14-26.44,19.57-59.17,31.14-94.6,31.14-87.94,0-159.23-71.29-159.23-159.23,0-66.38,40.62-123.28,98.36-147.18C553.84,53.35,617.47,0,693.54,0c33.37,0,64.33,10.26,89.92,27.8,25.59-17.54,56.56-27.8,89.92-27.8,76.71,0,140.75,54.24,155.85,126.46,55.54,24.86,94.23,80.62,94.23,145.4Z"/>
  <path class="cls-1" d="M622.87,247.66c0,80.11-64.94,145.05-145.05,145.05-29.66,0-57.24-8.9-80.21-24.18-22.97,15.28-50.55,24.18-80.2,24.18-32.27,0-62.09-10.54-86.18-28.37-24.09,17.82-53.9,28.37-86.18,28.37C64.94,392.71,0,327.77,0,247.66c0-60.47,37-112.3,89.6-134.07C103.97,48.6,161.92,0,231.23,0c30.4,0,58.61,9.35,81.91,25.32C336.45,9.35,364.66,0,395.05,0c69.88,0,128.22,49.41,141.98,115.2,50.59,22.65,85.84,73.44,85.84,132.46Z"/>
  <polygon class="cls-2" points="622.87 786.76 542.53 892.45 462.22 998.15 482.24 866.91 498.08 763.17 451.38 743.39 531.7 637.69 612.02 531.99 591.99 663.23 576.15 766.97 622.87 786.76"/>
  <path class="cls-3" d="M1043.73,462.04c0,108.26-87.76,196.02-196.02,196.02-40.07,0-77.34-12.03-108.39-32.67-31.04,20.64-68.31,32.67-108.38,32.67-43.61,0-83.9-14.25-116.46-38.33-32.55,24.09-72.84,38.33-116.45,38.33-108.26,0-196.02-87.76-196.02-196.02,0-81.71,50-151.76,121.08-181.18,19.42-87.81,97.74-153.49,191.39-153.49,41.07,0,79.2,12.63,110.69,34.22,31.5-21.59,69.62-34.22,110.69-34.22,94.43,0,173.26,66.77,191.86,155.68,68.37,30.61,116,99.24,116,178.99Z"/>
</svg>