<?xml version="1.0" encoding="UTF-8"?>
<svg id="Layer_1" data-name="Layer 1" xmlns="http://www.w3.org/2000/svg" xmlns:xlink="http://www.w3.org/1999/xlink" viewBox="0 0 1463.53 815.93">
  <defs>
    <style>
      .cls-1 {
        fill: url(#linear-gradient-2);
      }

      .cls-2 {
        fill: url(#linear-gradient);
      }
    </style>
    <linearGradient id="linear-gradient" x1="0" y1="258.54" x2="820.15" y2="258.54" gradientUnits="userSpaceOnUse">
      <stop offset="0" stop-color="#dedede"/>
      <stop offset="1" stop-color="#fff"/>
    </linearGradient>
    <linearGradient id="linear-gradient-2" x1="355.22" y1="466.54" x2="1463.53" y2="466.54" xlink:href="#linear-gradient"/>
  </defs>
  <path class="cls-2" d="M820.15,326.1c0,105.48-85.51,190.99-190.99,190.99-39.05,0-75.36-11.72-105.61-31.83-30.25,20.11-66.56,31.83-105.6,31.83-42.5,0-81.75-13.88-113.48-37.35-31.72,23.47-70.97,37.35-113.47,37.35C85.51,517.09,0,431.58,0,326.1c0-79.62,48.72-147.87,117.98-176.54C136.9,64,213.21,0,304.46,0c40.02,0,77.17,12.31,107.86,33.34C443.01,12.31,480.16,0,520.17,0c92.01,0,168.82,65.06,186.94,151.69,66.62,29.82,113.03,96.7,113.03,174.41Z"/>
  <path class="cls-1" d="M1463.53,557.83c0,142.55-115.55,258.1-258.1,258.1-52.77,0-101.84-15.84-142.72-43.02-40.87,27.18-89.95,43.02-142.71,43.02-57.43,0-110.47-18.76-153.35-50.47-42.86,31.72-95.91,50.47-153.34,50.47-142.55,0-258.1-115.55-258.1-258.1,0-107.6,65.84-199.82,159.43-238.56,25.57-115.63,128.69-202.11,252.01-202.11,54.08,0,104.28,16.63,145.75,45.06,41.48-28.43,91.67-45.06,145.75-45.06,124.34,0,228.14,87.92,252.62,204.98,90.02,40.3,152.74,130.67,152.74,235.69Z"/>
</svg>